<svg version="1.1"
	 id="Слой_1" xmlns:cc="http://creativecommons.org/ns#" xmlns:dc="http://purl.org/dc/elements/1.1/" xmlns:inkscape="http://www.inkscape.org/namespaces/inkscape" xmlns:rdf="http://www.w3.org/1999/02/22-rdf-syntax-ns#" xmlns:sodipodi="http://sodipodi.sourceforge.net/DTD/sodipodi-0.dtd" xmlns:svg="http://www.w3.org/2000/svg"
	 xmlns="http://www.w3.org/2000/svg" xmlns:xlink="http://www.w3.org/1999/xlink" x="0px" y="0px" viewBox="0 0 88 59.9"
	 style="enable-background:new 0 0 88 59.9;" xml:space="preserve">
<g transform="translate(0,-952.36218)">
	<path d="M13,952.4c-2.8,0-5,2.2-5,5v3h80v-3c0-2.8-2.2-5-5-5H13z M8,964.4v6h80v-6H8z M8,974.4v9.2c1.9-0.8,3.9-1.2,6-1.2
		c8.8,0,16,7.2,16,16c0,2.1-0.4,4.1-1.2,6H83c2.8,0,5-2.2,5-5v-25H8z M64,981.4c1.9,0,3.6,0.7,5,1.8c1.4-1.1,3.1-1.8,5-1.8
		c4.4,0,8,3.6,8,8s-3.6,8-8,8c-1.9,0-3.6-0.7-5-1.8c-1.4,1.1-3.1,1.8-5,1.8c-4.4,0-8-3.6-8-8S59.6,981.4,64,981.4z M14,984.4
		c-3.6,0-7.2,1.4-9.9,4.1c-5.2,5.2-5.4,13.4-0.8,18.9L23,987.7C20.4,985.4,17.2,984.4,14,984.4z M64,985.4c-2.2,0-4,1.8-4,4
		s1.8,4,4,4c2.2,0,4-1.8,4-4C68,987.1,66.2,985.4,64,985.4z M74,985.4c-1,0-1.9,0.4-2.6,1c0.4,0.9,0.6,2,0.6,3c0,1.1-0.2,2.1-0.6,3
		c0.7,0.6,1.6,1,2.6,1c2.2,0,4-1.8,4-4C78,987.1,76.2,985.4,74,985.4z M24.8,989.4L5,1009.1c5.5,4.6,13.7,4.3,18.9-0.8
		C29.1,1003.1,29.4,994.9,24.8,989.4L24.8,989.4z" fill="#3b7893"/>
</g>
</svg>
