<?xml version="1.0" encoding="utf-8"?>
<!-- Generator: Adobe Illustrator 21.1.0, SVG Export Plug-In . SVG Version: 6.00 Build 0)  -->
<svg version="1.1" id="Слой_1" xmlns="http://www.w3.org/2000/svg" xmlns:xlink="http://www.w3.org/1999/xlink" x="0px" y="0px"
	 viewBox="0 0 65.2 66.6" style="enable-background:new 0 0 65.2 66.6;" xml:space="preserve">
<g>
	<path d="M0,27c0,14.9,12.1,27,27,27c5.8,0,11.1-1.8,15.5-4.9l16.4,16.4c0.7,0.7,1.7,1.1,2.6,1.1s1.9-0.4,2.6-1.1
		c1.4-1.4,1.4-3.8,0-5.2L47.9,44.1C51.7,39.4,54,33.5,54,27C54,12.1,41.9,0,27,0C12.1,0,0,12.1,0,27z M5.9,27
		C5.9,15.4,15.4,5.9,27,5.9S48.1,15.3,48.1,27S38.6,48.1,27,48.1S5.9,38.6,5.9,27z"/>
</g>
</svg>
