<svg version="1.1" id="Слой_1" xmlns="http://www.w3.org/2000/svg" xmlns:xlink="http://www.w3.org/1999/xlink" x="0px" y="0px"
	 viewBox="0 0 88 77" style="enable-background:new 0 0 88 77;" xml:space="preserve">
<g>
	<path d="M41,0.9c-6.3,6.2-12.5,12.5-18.9,18.7c-6.4,0-12.8,0-19.2,0c-1.6,0-2.9,1.3-2.9,2.9C0,32.7,0,43,0,53.2
		c0,1.6,1.3,2.9,2.9,2.9c6.4,0,12.8,0,19.2,0c6.3,6.2,12.5,12.5,18.9,18.7c1.8,1.8,5,0.4,5-2c0-23.3,0-46.7,0-70
		C46.1,0.3,42.9-1,41,0.9z"/>
	<path d="M56.4,13.1c-3.6-1.3-5.1,4.3-1.6,5.6c19.7,7.2,19.7,33.9,0,41.2c-3.6,1.3-2,7,1.6,5.6C81.8,56.1,81.7,22.3,56.4,13.1z"/>
	<path d="M60.8,1.8c-3.6-1.2-5.1,4.3-1.6,5.6c30.7,10.9,30.7,52.7,0,63.6c-3.6,1.2-2,6.9,1.6,5.6C97.1,63.9,97.1,14.7,60.8,1.8z"/>
</g>
</svg>
