<svg version="1.1" xmlns="http://www.w3.org/2000/svg" xmlns:xlink="http://www.w3.org/1999/xlink" x="0px" y="0px"
	 viewBox="0 0 45.2 45.1" style="enable-background:new 0 0 45.2 45.1;" xml:space="preserve">
<path d="M43.6,33.2l-2.1-0.8l-8.3-2.8c-0.7-0.2-1.5-0.1-2.1,0.4l-2.8,2.5c-0.6,0.5-1.5,0.7-2.2,0.3C19.9,30,15,25,12.2,18.9
	c-0.4-0.7-0.2-1.6,0.3-2.2l2.5-2.8c0.5-0.6,0.7-1.4,0.4-2.1l-2.8-8.3l-0.7-2.1l0,0c-0.1-0.3-0.3-0.6-0.5-0.8C11,0.2,10.5,0,10,0
	C7.1-0.2,4.2,1,2.4,3.3C2.2,3.5,2.1,3.7,2,3.9L1.8,4.2C1.7,4.3,1.6,4.5,1.5,4.6C1.4,4.7,1.3,4.9,1.2,5l0,0c-3.4,5.8,0.6,17,9.6,26.7
	l0,0c0.4,0.4,0.7,0.8,1.1,1.2l0.2,0.2l0.2,0.2c0.4,0.4,0.8,0.8,1.2,1.1l0,0c9.7,9,20.8,13,26.7,9.6l0,0l0.4-0.3
	c0.1-0.1,0.3-0.2,0.4-0.3l0.3-0.2l0.6-0.4c2.3-1.9,3.5-4.7,3.3-7.6c0-0.5-0.2-1-0.6-1.4C44.2,33.4,43.9,33.2,43.6,33.2L43.6,33.2z"
	fill="#3b7893" />
</svg>
