<svg version="1.1"
	  xmlns:cc="http://creativecommons.org/ns#" xmlns:dc="http://purl.org/dc/elements/1.1/" xmlns:inkscape="http://www.inkscape.org/namespaces/inkscape" xmlns:rdf="http://www.w3.org/1999/02/22-rdf-syntax-ns#" xmlns:sodipodi="http://sodipodi.sourceforge.net/DTD/sodipodi-0.dtd" xmlns:svg="http://www.w3.org/2000/svg"
	 xmlns="http://www.w3.org/2000/svg" xmlns:xlink="http://www.w3.org/1999/xlink" x="0px" y="0px" viewBox="0 0 88 58"
	 style="enable-background:new 0 0 88 58;" xml:space="preserve">
<g transform="translate(0,-952.36218)">
	<path d="M54.3,952.4c0.4,0,0.7,0.2,1,0.4l32,25c0.9,0.7,1,1.9,0.3,2.8c-0.1,0.1-0.2,0.2-0.3,0.3l-32,25c-0.9,0.7-2.1,0.5-2.8-0.4
		c-0.3-0.3-0.4-0.8-0.4-1.2v-10c-2.5-0.1-8.2-0.3-16.6,1.2c-10,1.7-22.2,5.7-32.1,14.3c-0.8,0.7-2.1,0.6-2.8-0.2
		c-0.5-0.5-0.6-1.3-0.4-1.9c8.4-25.7,33.8-38,51.9-42.9v-10.5c0-1.1,0.9-2,2-2C54.1,952.4,54.2,952.4,54.3,952.4z M56,958.4v7.9
		c0,0.9-0.6,1.7-1.5,1.9c-15.8,4-37.8,14.2-47.8,34.2c9.3-6.2,19.5-9.4,28-10.9c10.4-1.8,18.7-1.2,19.3-1.2c1.1,0.1,1.9,0.9,1.9,2
		v7.9l26.8-20.9L56,958.4z" fill="#a5a5a5"/>
</g>
</svg>
